PathFileType	4	(X/Y/Z)	C:/Users/beibeiliu/ov580/test_trc\sequence.27_training_dense_left.trc
DataRate	CameraRate	NumFrames	NumMarkers	Units	OrigDataRate	OrigDataStartFrame	OrigNumFrames
120	120	14	19	mm	120	166	331
Frame#	Time	ThumbCMC			ThumbMCP			ThumbIP			ThumbTip			IndexMCP			IndexPIP			IndexTip			MiddleMCP			MiddlePIP			MiddleTip			RingMCP			RingPIP			RingTip			PinkyMCP			PinkyPIP			PinkyTip			BackHand1			BackHand2			BackHand3	
		X0	Y0	Z0	X1	Y1	Z1	X2	Y2	Z2	X3	Y3	Z3	X4	Y4	Z4	X5	Y5	Z5	X6	Y6	Z6	X7	Y7	Z7	X8	Y8	Z8	X9	Y9	Z9	X10	Y10	Z10	X11	Y11	Z11	X12	Y12	Z12	X13	Y13	Z13	X14	Y14	Z14	X15	Y15	Z15	X16	Y16	Z16	X17	Y17	Z17	X18	Y18	Z18	
165	1.375	-165.322	24.4508	30.4142	-158.905	15.056	5.13527	-153.575	14.4351	-20.4285	-152.74	12.6422	-40.8853	-158.884	56.8957	-22.2293	-165.604	36.7843	-45.831	-175.983	13.1695	-38.2298	-180.161	74.0863	-25.44	-174.286	79.5439	-51.9867	-168.407	80.7292	-75.1875	-197.677	75.4689	-18.3377	-196.99	88.3047	-38.431	-193.76	95.3999	-54.1799	-220.586	67.0231	-11.7957	-227.647	75.498	-24.2134	-227.073	87.1129	-38.6753	-208.173	60.7166	23.3202	-208.255	52.0434	45.2419	-183.934	55.133	36.091	
166	1.38333	-163.757	18.2147	30.0217	-156.727	6.93928	4.30506	-150.22	6.01187	-20.679	-155.443	8.15673	-40.7388	-156.027	50.4231	-22.3962	-162.338	31.0759	-46.248	-173.517	4.6804	-35.3271	-172.594	71.5972	-27.6025	-168.036	74.7263	-51.8079	-164.699	76.4067	-77.0444	-197.55	73.866	-17.504	-190.418	83.4342	-37.1868	-190.072	92.2804	-55.3637	-219.536	67.8254	-13.1267	-218.185	77.5224	-28.7036	-223.014	89.4571	-38.3517	-204.292	59.6085	23.2004	-204.007	48.9241	46.004	-175.502	49.3554	33.8535	
167	1.39167	-164.389	11.5549	33.0105	-157.296	2.98329	2.24907	-151.22	-1.65273	-17.6404	-152.681	-0.867299	-42.2189	-151.235	43.4426	-27.4573	-161.3	24.3625	-46.8669	-175.866	2.2509	-35.1666	-169.044	65.8078	-27.6613	-162.953	68.3697	-50.2279	-161.032	70.2655	-78.1439	-188.286	68.1196	-17.2612	-184.027	80.9299	-38.5902	-180.365	89.5336	-58.1108	-210.136	65.167	-11.6858	-214.659	75.4329	-26.7932	-216.317	89.0479	-37.9201	-197.656	58.5941	20.6308	-201.759	47.358	44.7127	-172.147	45.05	32.4695	
168	1.4	-165.232	10.9581	29.1933	-158.338	-2.85168	6.13012	-154.176	-2.2689	-19.6597	-150.892	-6.51693	-41.2653	-149.152	38.5813	-25.831	-160.379	20.0613	-46.9131	-176.846	-0.46504	-36.0316	-162.983	60.5047	-28.2551	-159.041	64.3223	-50.8516	-154.784	65.5227	-80.0624	-184.369	68.5457	-22.6534	-177.214	76.3191	-40.5471	-174.956	83.2965	-56.7602	-208.219	63.6306	-12.7048	-207.682	75.4822	-29.5732	-207.192	84.9667	-40.1996	-194.978	54.1038	21.364	-201.34	46.6886	42.9761	-170.13	42.6641	35.5534	
169	1.40833	-162.851	5.20003	32.8881	-158.631	-1.07976	2.98948	-153.701	-2.49986	-20.0362	-152.384	-6.8807	-38.7055	-147.892	36.3008	-25.7852	-155.414	16.6318	-46.1965	-172.143	-2.80786	-36.1248	-164.88	59.5533	-27.0689	-154.681	60.4383	-52.5561	-152.883	62.3687	-75.2469	-183.833	64.2868	-18.6584	-180.633	76.0598	-39.5654	-174.415	85.6895	-60.5543	-203.827	62.4241	-13.9943	-209.641	72.2218	-29.1831	-208.442	83.598	-41.6192	-192.524	51.416	21.0825	-197.181	45.4431	45.6791	-171.088	42.263	34.3187	
170	1.41667	-160.476	7.14952	29.2017	-154.042	-7.15587	4.49287	-151.14	-7.89781	-16.2894	-151.783	-8.19266	-42.1141	-148.564	34.5129	-28.9348	-156.417	16.6924	-45.9868	-173.941	-4.24602	-34.4166	-163.319	59.0342	-29.6846	-153.478	59.4238	-53.1175	-156.43	61.6648	-76.3677	-184.109	66.623	-23.6526	-177.127	74.8569	-42.8056	-173.842	80.7177	-57.7894	-207.918	61.2289	-12.61	-205.899	68.8804	-27.9271	-206.128	83.0071	-45.442	-195.686	51.1183	19.7485	-199.494	45.4638	44.0134	-171.031	41.0932	34.9138	
171	1.425	-160.018	6.19957	31.3318	-156.321	-4.97958	4.5063	-152.591	-5.41899	-19.4283	-151.853	-8.66852	-37.6053	-148.066	32.8842	-29.2005	-158.284	16.5399	-45.2956	-174.74	-5.56511	-32.6477	-162.916	57.369	-28.9657	-156.576	58.3442	-49.6166	-153.434	60.2358	-78.0269	-182.318	62.6881	-20.9955	-179.369	71.7175	-38.8016	-173.19	81.6719	-60.7697	-207.615	58.5149	-12.0864	-206.793	69.8608	-29.1562	-206.17	79.2502	-42.4939	-194.197	52.0616	16.3778	-198.302	43.4453	46.1294	-168.109	37.4247	34.8019	
172	1.43333	-160.202	5.86691	31.035	-152.58	-8.85459	5.29847	-150.689	-6.84985	-19.2216	-149.642	-13.2786	-40.2818	-148.266	33.8099	-24.6431	-157.315	15.7153	-46.0148	-170.241	-7.00872	-33.6983	-165.938	55.6348	-27.5577	-156.16	57.3559	-51.6231	-154.138	59.2344	-80.4802	-181.448	63.2588	-23.3226	-178.405	72.1616	-42.6813	-176.929	79.6636	-60.4256	-210.42	57.8019	-13.0441	-208.335	68.7755	-31.3533	-209.028	82.1554	-46.1776	-190.316	49.3027	17.6051	-198.637	43.762	42.7491	-172.919	39.2631	34.758	
173	1.44167	-162.332	8.22565	30.079	-155.976	-4.9695	3.31029	-149.024	-10.0218	-20.4754	-151.972	-11.8568	-39.2681	-151.063	34.8435	-25.2153	-158.362	11.8219	-45.7858	-174.639	-5.21899	-34.0279	-166.026	55.2403	-27.909	-157.325	58.0534	-54.1587	-153.13	58.2156	-80.3915	-184.214	59.4204	-20.9142	-183.162	71.4818	-40.7981	-173.023	78.2936	-59.9373	-207.988	57.9477	-14.2849	-207.457	66.6019	-32.1766	-209.499	79.1888	-46.6507	-190.862	48.8926	21.0834	-197.339	41.9678	40.6172	-167.746	39.0967	33.0609	
174	1.45	-162.899	7.96719	29.6775	-156.476	-3.37324	3.72755	-148.994	-10.0298	-19.7137	-153.629	-9.27378	-38.8358	-148.503	33.811	-23.1917	-159.438	14.3524	-45.3569	-173.895	-7.89671	-32.3308	-166.621	55.1126	-28.3775	-159.897	57.6386	-55.3165	-157.156	58.87	-76.4874	-188.502	61.5184	-23.0132	-179.288	69.0371	-42.9789	-176.225	77.056	-61.0907	-210.221	56.5216	-15.1154	-206.646	64.0715	-31.2208	-208.335	75.2671	-47.504	-195.689	51.1926	18.0934	-200.594	42.919	42.229	-171.107	38.8132	34.3679	
175	1.45833	-164.349	7.05821	32.7186	-153.938	-6.1319	3.78507	-152.058	-8.20626	-18.4661	-149.987	-14.12	-39.8957	-153.138	35.0545	-25.8537	-153.862	15.5329	-45.4482	-170.36	-9.16336	-35.053	-167.845	55.9654	-29.5279	-162.481	58.637	-51.2358	-156.524	57.9655	-79.9089	-188.145	59.6684	-22.8917	-179.91	68.0874	-43.536	-176.762	74.7801	-59.2107	-211.952	56.3973	-16.5795	-208.993	62.257	-32.1694	-207.201	74.0903	-48.0576	-196.873	46.0852	21.4556	-199.93	40.4895	41.8463	-173.166	38.0455	34.9716	
176	1.46667	-163.219	8.31549	28.1154	-155.047	-5.59088	3.10714	-151.707	-8.76491	-18.1922	-150.23	-12.418	-39.3506	-154.497	35.6703	-26.1362	-161.069	14.3131	-46.4433	-171.669	-7.54672	-37.9214	-169.084	55.6463	-30.2075	-161.573	56.9061	-51.1133	-155.465	58.1308	-80.1857	-190.77	59.3413	-23.5977	-186.364	68.8689	-42.9251	-177.532	76.0202	-64.1311	-208.492	54.2187	-17.394	-211.496	62.3391	-36.9804	-209.074	71.0604	-51.4825	-199.605	47.6595	19.6383	-202.979	41.2537	41.4553	-172.531	40.2842	32.1269	
177	1.475	-161.295	7.31948	30.0071	-155.34	-5.16853	2.42443	-152.181	-7.31604	-16.9859	-151.43	-8.47332	-41.9487	-152.23	34.8799	-29.3391	-159.83	16.1634	-47.7279	-172.238	-10.0762	-37.6749	-171.047	54.4748	-28.0621	-163.844	58.0796	-55.7327	-160.8	58.7834	-78.4425	-188.241	59.1816	-24.5541	-187.681	67.0592	-43.3428	-180.494	75.1929	-65.651	-214.267	51.7599	-15.957	-212.426	58.6119	-36.1837	-209.748	66.6968	-56.0172	-199.825	49.8231	16.3599	-207.012	39.9467	43.0663	-176.419	40.9531	34.0522	
178	1.48333	-162.524	7.89194	29.3096	-159.822	-0.0496902	1.93686	-150.602	-6.3272	-20.877	-149.929	-9.98521	-40.509	-154.104	36.331	-25.6404	-160.905	19.5663	-49.2154	-171.703	-10.4449	-42.6396	-167.771	56.3119	-31.294	-163.481	58.5765	-55.6893	-160.873	60.5396	-79.0867	-190.544	58.3275	-24.109	-191.42	67.5426	-47.1758	-182.516	72.8458	-65.1454	-214.373	53.2645	-20.6069	-209.841	55.0691	-36.2762	-205.839	60.2084	-57.3708	-203.067	49.2513	16.6423	-202.837	42.2687	41.2492	-175.089	41.165	34.033	
